<svg xmlns="http://www.w3.org/2000/svg" xmlns:xlink="http://www.w3.org/1999/xlink" width="500" zoomAndPan="magnify" viewBox="0 0 375 374.999991" height="500" preserveAspectRatio="xMidYMid meet" version="1.2"><defs><clipPath id="f1e1099f7b"><path d="M 22.820312 22.820312 L 352.179688 22.820312 L 352.179688 352.179688 L 22.820312 352.179688 Z M 22.820312 22.820312 "/></clipPath><clipPath id="56ebc5ac80"><path d="M 187.5 22.820312 C 96.550781 22.820312 22.820312 96.550781 22.820312 187.5 C 22.820312 278.449219 96.550781 352.179688 187.5 352.179688 C 278.449219 352.179688 352.179688 278.449219 352.179688 187.5 C 352.179688 96.550781 278.449219 22.820312 187.5 22.820312 Z M 187.5 22.820312 "/></clipPath><clipPath id="24235052e3"><path d="M 242.890625 249.613281 L 340.988281 249.613281 L 340.988281 344.738281 L 242.890625 344.738281 Z M 242.890625 249.613281 "/></clipPath><clipPath id="290946f2c1"><path d="M 252.640625 249.613281 L 331.089844 249.613281 C 336.472656 249.613281 340.839844 253.976562 340.839844 259.363281 L 340.839844 334.988281 C 340.839844 340.371094 336.472656 344.738281 331.089844 344.738281 L 252.640625 344.738281 C 247.253906 344.738281 242.890625 340.371094 242.890625 334.988281 L 242.890625 259.363281 C 242.890625 253.976562 247.253906 249.613281 252.640625 249.613281 Z M 252.640625 249.613281 "/></clipPath><clipPath id="7a48083088"><path d="M 84.484375 83.554688 L 290.515625 83.554688 L 290.515625 289.585938 L 84.484375 289.585938 Z M 84.484375 83.554688 "/></clipPath><clipPath id="6fdb01b782"><path d="M 187.5 83.554688 C 130.605469 83.554688 84.484375 129.675781 84.484375 186.570312 C 84.484375 243.460938 130.605469 289.585938 187.5 289.585938 C 244.394531 289.585938 290.515625 243.460938 290.515625 186.570312 C 290.515625 129.675781 244.394531 83.554688 187.5 83.554688 Z M 187.5 83.554688 "/></clipPath><clipPath id="1263ae53c9"><path d="M 108.882812 106.691406 L 281.933594 106.691406 L 281.933594 279.742188 L 108.882812 279.742188 Z M 108.882812 106.691406 "/></clipPath><clipPath id="0a65327b11"><path d="M 195.410156 106.691406 C 147.621094 106.691406 108.882812 145.429688 108.882812 193.214844 C 108.882812 241.003906 147.621094 279.742188 195.410156 279.742188 C 243.195312 279.742188 281.933594 241.003906 281.933594 193.214844 C 281.933594 145.429688 243.195312 106.691406 195.410156 106.691406 Z M 195.410156 106.691406 "/></clipPath><clipPath id="b63be3a3b8"><path d="M 246.777344 254.171875 L 340.878906 254.171875 L 340.878906 344.738281 L 246.777344 344.738281 Z M 246.777344 254.171875 "/></clipPath><clipPath id="2c9673a9fd"><path d="M 256.527344 254.171875 L 331.089844 254.171875 C 336.472656 254.171875 340.839844 258.535156 340.839844 263.921875 L 340.839844 334.988281 C 340.839844 340.371094 336.472656 344.738281 331.089844 344.738281 L 256.527344 344.738281 C 251.140625 344.738281 246.777344 340.371094 246.777344 334.988281 L 246.777344 263.921875 C 246.777344 258.535156 251.140625 254.171875 256.527344 254.171875 Z M 256.527344 254.171875 "/></clipPath><clipPath id="b7a89a6057"><path d="M 153.867188 156.046875 L 271.863281 156.046875 L 271.863281 274.042969 L 153.867188 274.042969 Z M 153.867188 156.046875 "/></clipPath><clipPath id="580848a1d8"><path d="M 212.863281 156.046875 C 180.28125 156.046875 153.867188 182.460938 153.867188 215.046875 C 153.867188 247.628906 180.28125 274.042969 212.863281 274.042969 C 245.449219 274.042969 271.863281 247.628906 271.863281 215.046875 C 271.863281 182.460938 245.449219 156.046875 212.863281 156.046875 Z M 212.863281 156.046875 "/></clipPath></defs><g id="94de077bb1"><g clip-rule="nonzero" clip-path="url(#f1e1099f7b)"><g clip-rule="nonzero" clip-path="url(#56ebc5ac80)"><path style=" stroke:none;fill-rule:nonzero;fill:#abc2fe;fill-opacity:1;" d="M 22.820312 22.820312 L 352.179688 22.820312 L 352.179688 352.179688 L 22.820312 352.179688 Z M 22.820312 22.820312 "/></g></g><g clip-rule="nonzero" clip-path="url(#24235052e3)"><g clip-rule="nonzero" clip-path="url(#290946f2c1)"><path style=" stroke:none;fill-rule:nonzero;fill:#ffffff;fill-opacity:1;" d="M 242.890625 249.613281 L 340.988281 249.613281 L 340.988281 344.738281 L 242.890625 344.738281 Z M 242.890625 249.613281 "/></g></g><g clip-rule="nonzero" clip-path="url(#7a48083088)"><g clip-rule="nonzero" clip-path="url(#6fdb01b782)"><path style=" stroke:none;fill-rule:nonzero;fill:#ffffff;fill-opacity:1;" d="M 84.484375 83.554688 L 290.515625 83.554688 L 290.515625 289.585938 L 84.484375 289.585938 Z M 84.484375 83.554688 "/></g></g><g clip-rule="nonzero" clip-path="url(#1263ae53c9)"><g clip-rule="nonzero" clip-path="url(#0a65327b11)"><path style=" stroke:none;fill-rule:nonzero;fill:#000000;fill-opacity:1;" d="M 108.882812 106.691406 L 281.933594 106.691406 L 281.933594 279.742188 L 108.882812 279.742188 Z M 108.882812 106.691406 "/></g></g><g clip-rule="nonzero" clip-path="url(#b63be3a3b8)"><g clip-rule="nonzero" clip-path="url(#2c9673a9fd)"><path style=" stroke:none;fill-rule:nonzero;fill:#f9cc5e;fill-opacity:1;" d="M 246.777344 254.171875 L 340.878906 254.171875 L 340.878906 344.738281 L 246.777344 344.738281 Z M 246.777344 254.171875 "/></g></g><g clip-rule="nonzero" clip-path="url(#b7a89a6057)"><g clip-rule="nonzero" clip-path="url(#580848a1d8)"><path style=" stroke:none;fill-rule:nonzero;fill:#ffffff;fill-opacity:1;" d="M 153.867188 156.046875 L 271.863281 156.046875 L 271.863281 274.042969 L 153.867188 274.042969 Z M 153.867188 156.046875 "/></g></g></g></svg>